<svg width="22" height="22" viewBox="0 0 22 22" fill="none" xmlns="http://www.w3.org/2000/svg">
  <circle cx="11" cy="11" r="11" fill="white" fill-opacity="0.09"/>
  <path d="M13.594 7.01639C13.9967 6.61367 14.6503 6.61369 15.053 7.01639C15.4557 7.41912 15.4557 8.07265 15.053 8.47537L12.136 11.3914L15.053 14.3084C15.4557 14.7111 15.4557 15.3646 15.053 15.7674C14.6504 16.1699 13.9977 16.1697 13.595 15.7674L10.678 12.8504L7.76102 15.7674C7.35829 16.1701 6.70476 16.1701 6.30203 15.7674C5.89933 15.3646 5.89931 14.7111 6.30203 14.3084L9.21903 11.3914L6.30301 8.47537C5.90028 8.07265 5.90028 7.41912 6.30301 7.01639C6.70573 6.61407 7.3584 6.61391 7.76102 7.01639L10.677 9.93241L13.594 7.01639Z" fill="white" fill-opacity="0.5"/>
</svg>
