<svg width="324" height="265" viewBox="0 0 324 265" fill="none" xmlns="http://www.w3.org/2000/svg">
  <mask id="path-1-inside-1_4_687" fill="white">
    <path fill-rule="evenodd" clip-rule="evenodd" d="M20 67C8.9543 67 0 75.9543 0 87V238C0 238 56.8662 255.161 161.5 255.161C266.134 255.161 323 238 323 238V87C323 75.9543 314.046 67 303 67H20Z"/>
  </mask>
  <path fill-rule="evenodd" clip-rule="evenodd" d="M20 67C8.9543 67 0 75.9543 0 87V238C0 238 56.8662 255.161 161.5 255.161C266.134 255.161 323 238 323 238V87C323 75.9543 314.046 67 303 67H20Z" fill="#6A8DFF"/>
  <path d="M0 238H-1V238.743L-0.288906 238.957L0 238ZM323 238L323.289 238.957L324 238.743V238H323ZM1 87C1 76.5066 9.50659 68 20 68V66C8.40202 66 -1 75.402 -1 87H1ZM1 238V87H-1V238H1ZM0 238C-0.288906 238.957 -0.288451 238.957 -0.287779 238.958C-0.287266 238.958 -0.286377 238.958 -0.285351 238.958C-0.283298 238.959 -0.280378 238.96 -0.276591 238.961C-0.269018 238.963 -0.257977 238.967 -0.243472 238.971C-0.214464 238.98 -0.171603 238.992 -0.114924 239.009C-0.00156616 239.042 0.167063 239.091 0.390685 239.155C0.83793 239.282 1.50515 239.468 2.39012 239.704C4.16007 240.176 6.80102 240.849 10.2952 241.656C17.2836 243.27 27.685 245.419 41.3571 247.568C68.7013 251.866 109.128 256.161 161.5 256.161V254.161C109.238 254.161 68.9149 249.875 41.6676 245.592C28.0439 243.451 17.6891 241.311 10.7453 239.707C7.27336 238.905 4.65419 238.238 2.90554 237.771C2.03122 237.538 1.37452 237.355 0.937674 237.231C0.71925 237.169 0.555789 237.121 0.447569 237.09C0.393459 237.074 0.353158 237.062 0.326703 237.054C0.313475 237.05 0.303709 237.047 0.297408 237.045C0.294257 237.044 0.291973 237.044 0.290556 237.043C0.289847 237.043 0.289435 237.043 0.28908 237.043C0.288885 237.043 0.288906 237.043 0 238ZM161.5 256.161C213.872 256.161 254.299 251.866 281.643 247.568C295.315 245.419 305.716 243.27 312.705 241.656C316.199 240.849 318.84 240.176 320.61 239.704C321.495 239.468 322.162 239.282 322.609 239.155C322.833 239.091 323.002 239.042 323.115 239.009C323.172 238.992 323.214 238.98 323.243 238.971C323.258 238.967 323.269 238.963 323.277 238.961C323.28 238.96 323.283 238.959 323.285 238.958C323.286 238.958 323.287 238.958 323.288 238.958C323.288 238.957 323.289 238.957 323 238C322.711 237.043 322.711 237.043 322.711 237.043C322.711 237.043 322.71 237.043 322.709 237.043C322.708 237.044 322.706 237.044 322.703 237.045C322.696 237.047 322.687 237.05 322.673 237.054C322.647 237.062 322.607 237.074 322.552 237.09C322.444 237.121 322.281 237.169 322.062 237.231C321.625 237.355 320.969 237.538 320.094 237.771C318.346 238.238 315.727 238.905 312.255 239.707C305.311 241.311 294.956 243.451 281.332 245.592C254.085 249.875 213.762 254.161 161.5 254.161V256.161ZM322 87V238H324V87H322ZM303 68C313.493 68 322 76.5066 322 87H324C324 75.402 314.598 66 303 66V68ZM20 68H303V66H20V68Z" fill="black" mask="url(#path-1-inside-1_4_687)"/>
  <mask id="mask0_4_687" style="mask-type:alpha" maskUnits="userSpaceOnUse" x="0" y="66" width="323" height="189">
    <mask id="path-3-inside-2_4_687" fill="white">
      <path fill-rule="evenodd" clip-rule="evenodd" d="M20 66C8.9543 66 0 74.9543 0 86V237C0 237 56.8662 254.161 161.5 254.161C266.134 254.161 323 237 323 237V86C323 74.9543 314.046 66 303 66H20Z"/>
    </mask>
    <path fill-rule="evenodd" clip-rule="evenodd" d="M20 66C8.9543 66 0 74.9543 0 86V237C0 237 56.8662 254.161 161.5 254.161C266.134 254.161 323 237 323 237V86C323 74.9543 314.046 66 303 66H20Z" fill="#6A8DFF"/>
    <path d="M0 237H-1V237.743L-0.288906 237.957L0 237ZM323 237L323.289 237.957L324 237.743V237H323ZM1 86C1 75.5066 9.50659 67 20 67V65C8.40202 65 -1 74.402 -1 86H1ZM1 237V86H-1V237H1ZM0 237C-0.288906 237.957 -0.288451 237.957 -0.287779 237.958C-0.287266 237.958 -0.286377 237.958 -0.285351 237.958C-0.283298 237.959 -0.280378 237.96 -0.276591 237.961C-0.269018 237.963 -0.257977 237.967 -0.243472 237.971C-0.214464 237.98 -0.171603 237.992 -0.114924 238.009C-0.00156616 238.042 0.167063 238.091 0.390685 238.155C0.83793 238.282 1.50515 238.468 2.39012 238.704C4.16007 239.176 6.80102 239.849 10.2952 240.656C17.2836 242.27 27.685 244.419 41.3571 246.568C68.7013 250.866 109.128 255.161 161.5 255.161V253.161C109.238 253.161 68.9149 248.875 41.6676 244.592C28.0439 242.451 17.6891 240.311 10.7453 238.707C7.27336 237.905 4.65419 237.238 2.90554 236.771C2.03122 236.538 1.37452 236.355 0.937674 236.231C0.71925 236.169 0.555789 236.121 0.447569 236.09C0.393459 236.074 0.353158 236.062 0.326703 236.054C0.313475 236.05 0.303709 236.047 0.297408 236.045C0.294257 236.044 0.291973 236.044 0.290556 236.043C0.289847 236.043 0.289435 236.043 0.28908 236.043C0.288885 236.043 0.288906 236.043 0 237ZM161.5 255.161C213.872 255.161 254.299 250.866 281.643 246.568C295.315 244.419 305.716 242.27 312.705 240.656C316.199 239.849 318.84 239.176 320.61 238.704C321.495 238.468 322.162 238.282 322.609 238.155C322.833 238.091 323.002 238.042 323.115 238.009C323.172 237.992 323.214 237.98 323.243 237.971C323.258 237.967 323.269 237.963 323.277 237.961C323.28 237.96 323.283 237.959 323.285 237.958C323.286 237.958 323.287 237.958 323.288 237.958C323.288 237.957 323.289 237.957 323 237C322.711 236.043 322.711 236.043 322.711 236.043C322.711 236.043 322.71 236.043 322.709 236.043C322.708 236.044 322.706 236.044 322.703 236.045C322.696 236.047 322.687 236.05 322.673 236.054C322.647 236.062 322.607 236.074 322.552 236.09C322.444 236.121 322.281 236.169 322.062 236.231C321.625 236.355 320.969 236.538 320.094 236.771C318.346 237.238 315.727 237.905 312.255 238.707C305.311 240.311 294.956 242.451 281.332 244.592C254.085 248.875 213.762 253.161 161.5 253.161V255.161ZM322 86V237H324V86H322ZM303 67C313.493 67 322 75.5066 322 86H324C324 74.402 314.598 65 303 65V67ZM20 67H303V65H20V67Z" fill="black" mask="url(#path-3-inside-2_4_687)"/>
  </mask>
  <g mask="url(#mask0_4_687)">
    <mask id="path-5-inside-3_4_687" fill="white">
      <path fill-rule="evenodd" clip-rule="evenodd" d="M51.5276 261.455C48.3731 263.081 44.7938 264 41 264C28.2975 264 18 253.703 18 241C18 228.297 28.2975 218 41 218C43.4851 218 45.8781 218.394 48.12 219.123C51.8853 210.795 60.2659 205 70 205C78.2531 205 85.5333 209.166 89.8524 215.51C91.5163 215.175 93.2377 215 95 215C109.359 215 121 226.641 121 241C121 255.359 109.359 267 95 267C90.256 267 85.8088 265.729 81.9801 263.51C78.0432 266.336 73.2159 268 68 268C61.6224 268 55.8258 265.512 51.5276 261.455Z"/>
    </mask>
    <path fill-rule="evenodd" clip-rule="evenodd" d="M51.5276 261.455C48.3731 263.081 44.7938 264 41 264C28.2975 264 18 253.703 18 241C18 228.297 28.2975 218 41 218C43.4851 218 45.8781 218.394 48.12 219.123C51.8853 210.795 60.2659 205 70 205C78.2531 205 85.5333 209.166 89.8524 215.51C91.5163 215.175 93.2377 215 95 215C109.359 215 121 226.641 121 241C121 255.359 109.359 267 95 267C90.256 267 85.8088 265.729 81.9801 263.51C78.0432 266.336 73.2159 268 68 268C61.6224 268 55.8258 265.512 51.5276 261.455Z" fill="white"/>
    <path d="M51.5276 261.455L52.2141 260.727L51.6989 260.241L51.0693 260.566L51.5276 261.455ZM48.12 219.123L47.8107 220.074L48.6623 220.351L49.0312 219.535L48.12 219.123ZM89.8524 215.51L89.0258 216.072L89.3991 216.621L90.0493 216.49L89.8524 215.51ZM81.9801 263.51L82.4816 262.645L81.9222 262.321L81.3969 262.698L81.9801 263.51ZM51.0693 260.566C48.0532 262.121 44.6307 263 41 263V265C44.957 265 48.6931 264.042 51.986 262.343L51.0693 260.566ZM41 263C28.8497 263 19 253.15 19 241H17C17 254.255 27.7452 265 41 265V263ZM19 241C19 228.85 28.8497 219 41 219V217C27.7452 217 17 227.745 17 241H19ZM41 219C43.3788 219 45.6675 219.377 47.8107 220.074L48.4293 218.172C46.0888 217.411 43.5914 217 41 217V219ZM49.0312 219.535C52.6406 211.552 60.673 206 70 206V204C59.8588 204 51.13 210.038 47.2088 218.711L49.0312 219.535ZM70 206C77.9084 206 84.885 209.99 89.0258 216.072L90.679 214.947C86.1816 208.341 78.5979 204 70 204V206ZM90.0493 216.49C91.6488 216.169 93.3042 216 95 216V214C93.1712 214 91.3839 214.182 89.6555 214.529L90.0493 216.49ZM95 216C108.807 216 120 227.193 120 241H122C122 226.088 109.912 214 95 214V216ZM120 241C120 254.807 108.807 266 95 266V268C109.912 268 122 255.912 122 241H120ZM95 266C90.4368 266 86.162 264.778 82.4816 262.645L81.4786 264.375C85.4556 266.681 90.0752 268 95 268V266ZM81.3969 262.698C77.6244 265.406 72.9999 267 68 267V269C73.432 269 78.4621 267.266 82.5632 264.322L81.3969 262.698ZM68 267C61.8877 267 56.3341 264.617 52.2141 260.727L50.8411 262.182C55.3176 266.408 61.3571 269 68 269V267Z" fill="black" mask="url(#path-5-inside-3_4_687)"/>
  </g>
  <mask id="path-7-inside-4_4_687" fill="white">
    <path fill-rule="evenodd" clip-rule="evenodd" d="M212.528 172.455C209.373 174.081 205.794 175 202 175C189.297 175 179 164.703 179 152C179 139.297 189.297 129 202 129C204.485 129 206.878 129.394 209.12 130.123C212.885 121.795 221.266 116 231 116C239.253 116 246.533 120.166 250.852 126.51C252.516 126.175 254.238 126 256 126C270.359 126 282 137.641 282 152C282 166.359 270.359 178 256 178C251.256 178 246.809 176.729 242.98 174.51C239.043 177.336 234.216 179 229 179C222.622 179 216.826 176.512 212.528 172.455Z"/>
  </mask>
  <path fill-rule="evenodd" clip-rule="evenodd" d="M212.528 172.455C209.373 174.081 205.794 175 202 175C189.297 175 179 164.703 179 152C179 139.297 189.297 129 202 129C204.485 129 206.878 129.394 209.12 130.123C212.885 121.795 221.266 116 231 116C239.253 116 246.533 120.166 250.852 126.51C252.516 126.175 254.238 126 256 126C270.359 126 282 137.641 282 152C282 166.359 270.359 178 256 178C251.256 178 246.809 176.729 242.98 174.51C239.043 177.336 234.216 179 229 179C222.622 179 216.826 176.512 212.528 172.455Z" fill="white"/>
  <path d="M212.528 172.455L213.214 171.727L212.699 171.241L212.069 171.566L212.528 172.455ZM209.12 130.123L208.811 131.074L209.662 131.351L210.031 130.535L209.12 130.123ZM250.852 126.51L250.026 127.072L250.399 127.621L251.049 127.49L250.852 126.51ZM242.98 174.51L243.482 173.645L242.922 173.321L242.397 173.698L242.98 174.51ZM212.069 171.566C209.053 173.121 205.631 174 202 174V176C205.957 176 209.693 175.042 212.986 173.343L212.069 171.566ZM202 174C189.85 174 180 164.15 180 152H178C178 165.255 188.745 176 202 176V174ZM180 152C180 139.85 189.85 130 202 130V128C188.745 128 178 138.745 178 152H180ZM202 130C204.379 130 206.667 130.377 208.811 131.074L209.429 129.172C207.089 128.411 204.591 128 202 128V130ZM210.031 130.535C213.641 122.552 221.673 117 231 117V115C220.859 115 212.13 121.038 208.209 129.711L210.031 130.535ZM231 117C238.908 117 245.885 120.99 250.026 127.072L251.679 125.947C247.182 119.341 239.598 115 231 115V117ZM251.049 127.49C252.649 127.169 254.304 127 256 127V125C254.171 125 252.384 125.182 250.656 125.529L251.049 127.49ZM256 127C269.807 127 281 138.193 281 152H283C283 137.088 270.912 125 256 125V127ZM281 152C281 165.807 269.807 177 256 177V179C270.912 179 283 166.912 283 152H281ZM256 177C251.437 177 247.162 175.778 243.482 173.645L242.479 175.375C246.456 177.681 251.075 179 256 179V177ZM242.397 173.698C238.624 176.406 234 178 229 178V180C234.432 180 239.462 178.266 243.563 175.322L242.397 173.698ZM229 178C222.888 178 217.334 175.617 213.214 171.727L211.841 173.182C216.318 177.408 222.357 180 229 180V178Z" fill="black" mask="url(#path-7-inside-4_4_687)"/>
  <mask id="mask1_4_687" style="mask-type:alpha" maskUnits="userSpaceOnUse" x="0" y="32" width="323" height="224">
    <mask id="path-9-inside-5_4_687" fill="white">
      <path fill-rule="evenodd" clip-rule="evenodd" d="M20 32C8.9543 32 0 40.9543 0 52V238C0 238 56.8662 255.161 161.5 255.161C266.134 255.161 323 238 323 238V52C323 40.9543 314.046 32 303 32H20Z"/>
    </mask>
    <path fill-rule="evenodd" clip-rule="evenodd" d="M20 32C8.9543 32 0 40.9543 0 52V238C0 238 56.8662 255.161 161.5 255.161C266.134 255.161 323 238 323 238V52C323 40.9543 314.046 32 303 32H20Z" fill="#6A8DFF"/>
    <path d="M0 238H-1V238.743L-0.288906 238.957L0 238ZM323 238L323.289 238.957L324 238.743V238H323ZM1 52C1 41.5066 9.50659 33 20 33V31C8.40202 31 -1 40.402 -1 52H1ZM1 238V52H-1V238H1ZM0 238C-0.288906 238.957 -0.288451 238.957 -0.287779 238.958C-0.287266 238.958 -0.286377 238.958 -0.285351 238.958C-0.283298 238.959 -0.280378 238.96 -0.276591 238.961C-0.269018 238.963 -0.257977 238.967 -0.243472 238.971C-0.214464 238.98 -0.171603 238.992 -0.114924 239.009C-0.00156616 239.042 0.167063 239.091 0.390685 239.155C0.83793 239.282 1.50515 239.468 2.39012 239.704C4.16007 240.176 6.80102 240.849 10.2952 241.656C17.2836 243.27 27.685 245.419 41.3571 247.568C68.7013 251.866 109.128 256.161 161.5 256.161V254.161C109.238 254.161 68.9149 249.875 41.6676 245.592C28.0439 243.451 17.6891 241.311 10.7453 239.707C7.27336 238.905 4.65419 238.238 2.90554 237.771C2.03122 237.538 1.37452 237.355 0.937674 237.231C0.71925 237.169 0.555789 237.121 0.447569 237.09C0.393459 237.074 0.353158 237.062 0.326703 237.054C0.313475 237.05 0.303709 237.047 0.297408 237.045C0.294257 237.044 0.291973 237.044 0.290556 237.043C0.289847 237.043 0.289435 237.043 0.28908 237.043C0.288885 237.043 0.288906 237.043 0 238ZM161.5 256.161C213.872 256.161 254.299 251.866 281.643 247.568C295.315 245.419 305.716 243.27 312.705 241.656C316.199 240.849 318.84 240.176 320.61 239.704C321.495 239.468 322.162 239.282 322.609 239.155C322.833 239.091 323.002 239.042 323.115 239.009C323.172 238.992 323.214 238.98 323.243 238.971C323.258 238.967 323.269 238.963 323.277 238.961C323.28 238.96 323.283 238.959 323.285 238.958C323.286 238.958 323.287 238.958 323.288 238.958C323.288 238.957 323.289 238.957 323 238C322.711 237.043 322.711 237.043 322.711 237.043C322.711 237.043 322.71 237.043 322.709 237.043C322.708 237.044 322.706 237.044 322.703 237.045C322.696 237.047 322.687 237.05 322.673 237.054C322.647 237.062 322.607 237.074 322.552 237.09C322.444 237.121 322.281 237.169 322.062 237.231C321.625 237.355 320.969 237.538 320.094 237.771C318.346 238.238 315.727 238.905 312.255 239.707C305.311 241.311 294.956 243.451 281.332 245.592C254.085 249.875 213.762 254.161 161.5 254.161V256.161ZM322 52V238H324V52H322ZM303 33C313.493 33 322 41.5066 322 52H324C324 40.402 314.598 31 303 31V33ZM20 33H303V31H20V33Z" fill="black" mask="url(#path-9-inside-5_4_687)"/>
  </mask>
  <g mask="url(#mask1_4_687)">
    <path fill-rule="evenodd" clip-rule="evenodd" d="M178.614 32H144.386L151.855 143.503L102.572 43.2041L72.9292 60.3184L135.149 153.148L42.3188 90.9277L25.2046 120.57L125.505 169.854L14 162.385L14 196.613L125.505 189.144L25.2046 238.428L42.3188 268.07L135.152 205.848L72.9295 298.682L102.572 315.796L151.855 215.499L144.386 327H178.614L171.145 215.494L220.429 315.796L250.072 298.682L187.85 205.849L280.682 268.07L297.796 238.428L197.496 189.144L309 196.613V162.385L197.496 169.854L297.796 120.57L280.682 90.9277L187.854 153.147L250.072 60.3189L220.429 43.2047L171.145 143.507L178.614 32Z" fill="url(#paint0_radial_4_687)"/>
  </g>
  <path d="M251.722 79.4085C259.026 83.002 265.994 80.8918 271.022 73.8017C276.05 66.7117 275.657 57.9962 270.026 54.0027L264.5 49.9995L248 76.4995L251.722 79.4085Z" fill="#FBCA04" stroke="black"/>
  <ellipse cx="256.3" cy="63.0685" rx="12.5" ry="15.7381" transform="rotate(35.3428 256.3 63.0685)" fill="#FFE169" stroke="black"/>
  <ellipse cx="256.3" cy="63.0685" rx="8.92538" ry="11.2375" transform="rotate(35.3428 256.3 63.0685)" fill="#FBCA04" stroke="black"/>
  <path d="M58.7217 207.409C66.0258 211.002 72.994 208.892 78.0219 201.802C83.0499 194.712 82.6569 185.996 77.0256 182.003L71.5002 178L55.0002 204.5L58.7217 207.409Z" fill="#FBCA04" stroke="black"/>
  <ellipse cx="63.3004" cy="191.068" rx="12.5" ry="15.7381" transform="rotate(35.3428 63.3004 191.068)" fill="#FFE169" stroke="black"/>
  <ellipse cx="63.3005" cy="191.069" rx="8.92538" ry="11.2375" transform="rotate(35.3428 63.3005 191.069)" fill="#FBCA04" stroke="black"/>
  <path d="M148.722 257.409C156.026 261.002 162.994 258.892 168.022 251.802C173.05 244.712 172.657 235.996 167.026 232.003L161.5 228L145 254.5L148.722 257.409Z" fill="#FBCA04" stroke="black"/>
  <ellipse cx="153.3" cy="241.068" rx="12.5" ry="15.7381" transform="rotate(35.3428 153.3 241.068)" fill="#FFE169" stroke="black"/>
  <ellipse cx="153.3" cy="241.069" rx="8.92538" ry="11.2375" transform="rotate(35.3428 153.3 241.069)" fill="#FBCA04" stroke="black"/>
  <path d="M234.722 225.409C242.026 229.002 248.994 226.892 254.022 219.802C259.05 212.712 258.657 203.996 253.026 200.003L247.5 196L231 222.5L234.722 225.409Z" fill="#FBCA04" stroke="black"/>
  <ellipse cx="239.3" cy="209.068" rx="12.5" ry="15.7381" transform="rotate(35.3428 239.3 209.068)" fill="#FFE169" stroke="black"/>
  <ellipse cx="239.3" cy="209.069" rx="8.92538" ry="11.2375" transform="rotate(35.3428 239.3 209.069)" fill="#FBCA04" stroke="black"/>
  <path d="M96.7217 150.409C104.026 154.002 110.994 151.892 116.022 144.802C121.05 137.712 120.657 128.996 115.026 125.003L109.5 121L93.0002 147.5L96.7217 150.409Z" fill="#FBCA04" stroke="black"/>
  <ellipse cx="101.3" cy="134.068" rx="12.5" ry="15.7381" transform="rotate(35.3428 101.3 134.068)" fill="#FFE169" stroke="black"/>
  <ellipse cx="101.3" cy="134.069" rx="8.92538" ry="11.2375" transform="rotate(35.3428 101.3 134.069)" fill="#FBCA04" stroke="black"/>
  <path d="M277.722 148.409C285.026 152.002 291.994 149.892 297.022 142.802C302.05 135.712 301.657 126.996 296.026 123.003L290.5 119L274 145.5L277.722 148.409Z" fill="#FBCA04" stroke="black"/>
  <ellipse cx="282.3" cy="132.068" rx="12.5" ry="15.7381" transform="rotate(35.3428 282.3 132.068)" fill="#FFE169" stroke="black"/>
  <ellipse cx="282.3" cy="132.069" rx="8.92538" ry="11.2375" transform="rotate(35.3428 282.3 132.069)" fill="#FBCA04" stroke="black"/>
  <path d="M31.7217 95.4085C39.0258 99.002 45.994 96.8918 51.0219 89.8017C56.0499 82.7117 55.6569 73.9962 50.0256 70.0027L44.5002 65.9995L28.0002 92.4995L31.7217 95.4085Z" fill="#FBCA04" stroke="black"/>
  <ellipse cx="36.3004" cy="79.0685" rx="12.5" ry="15.7381" transform="rotate(35.3428 36.3004 79.0685)" fill="#FFE169" stroke="black"/>
  <ellipse cx="36.3005" cy="79.0685" rx="8.92538" ry="11.2375" transform="rotate(35.3428 36.3005 79.0685)" fill="#FBCA04" stroke="black"/>
  <path d="M86.9753 68.0319C76.7701 69.7599 68.3047 71.7578 62.5783 73.4368C98.6723 68.6626 190.909 70.1597 271.104 114.342C266.386 110.614 259.238 105.553 250.375 100.085C242.391 95.1582 233.015 89.9007 222.771 84.989C213.045 80.325 202.536 75.9729 191.694 72.512C185.149 70.4228 178.482 68.6583 171.793 67.3462C165.104 66.034 158.273 65.1507 151.438 64.6153C140.116 63.7284 128.783 63.796 118.064 64.4493C106.776 65.1374 96.1696 66.4751 86.9753 68.0319Z" fill="#7C9D3A" stroke="black"/>
  <path d="M266.459 78.2733C286.115 90.2816 277.745 107.322 271.103 114.342C266.386 110.614 259.237 105.553 250.374 100.085C242.39 95.1582 233.014 89.9006 222.77 84.9889C213.044 80.325 202.535 75.9728 191.693 72.512C185.148 70.4227 178.482 68.6583 171.792 67.3461C165.103 66.0339 158.272 65.1507 151.437 64.6153C140.115 63.7284 128.782 63.7959 118.063 64.4493C106.775 65.1373 96.1686 66.475 86.9744 68.0319C76.7691 69.7599 68.3037 71.7578 62.5773 73.4368C50.9725 53.6326 69.0384 43.9626 79.522 41.6032C89.3592 28.8585 104.774 28.8931 111.252 30.5034C125.168 17.7437 143.059 22.476 150.264 26.437C178.297 12.3693 199.561 27.9544 206.689 37.5055C226.608 35.7061 238.045 49.0914 241.274 56.0089C258.783 60.2588 265.36 72.6227 266.459 78.2733Z" fill="#C9FF5D"/>
  <path d="M66.4995 57.0001C68.3324 54.667 73.6983 49.8006 80.4985 49.0001C84.6655 44.3334 97.1995 35.6001 114 38.0001C119.166 34.0003 133.6 27.5007 150 33.5007C158.5 30.0005 179.2 25.7002 194 36.5002" stroke="white" stroke-width="7" stroke-linecap="round"/>
  <path d="M271.401 114.001L167.901 177.503M167.901 177.503L222.901 85.0026M167.901 177.503L191.901 72.0026M167.901 177.503L233.401 115.972M62.9009 74.0026L145.901 181.503M145.901 181.503L118.401 63.5026M145.901 181.503L151.401 63.5026M145.901 181.503L100.717 97.0026M250.401 100.003L233.401 115.972M86.9009 68.0026L100.717 97.0026M100.717 97.0026L119.901 169.503M233.401 115.972L197.401 153.003" stroke="black"/>
  <path d="M266.459 78.2733C286.115 90.2816 277.745 107.322 271.103 114.342C266.386 110.614 259.237 105.553 250.374 100.085M266.459 78.2733C265.36 72.6227 258.783 60.2588 241.274 56.0089M266.459 78.2733C265.502 81.9919 260.945 91.5601 250.374 100.085M241.274 56.0089C238.045 49.0914 226.608 35.7061 206.689 37.5055M241.274 56.0089C236.925 60.5907 227.135 72.8011 222.77 84.9889M206.689 37.5055C199.561 27.9544 178.297 12.3693 150.264 26.437M206.689 37.5055C204.999 44.4694 199.634 61.2202 191.693 72.512M150.264 26.437C143.059 22.476 125.168 17.7437 111.252 30.5034M150.264 26.437C149.675 34.636 149.085 53.7501 151.437 64.6153M111.252 30.5034C104.774 28.8931 89.3592 28.8585 79.522 41.6032M111.252 30.5034C113.21 35.1334 117.312 48.4045 118.063 64.4493M79.522 41.6032C69.0384 43.9626 50.9725 53.6326 62.5773 73.4368C68.3037 71.7578 76.7691 69.7599 86.9744 68.0319M79.522 41.6032C79.9053 47.9625 81.9325 62.1513 86.9744 68.0319M86.9744 68.0319C96.1686 66.475 106.775 65.1373 118.063 64.4493M118.063 64.4493C128.782 63.7959 140.115 63.7284 151.437 64.6153M151.437 64.6153C158.272 65.1507 165.103 66.0339 171.792 67.3461C178.482 68.6583 185.148 70.4227 191.693 72.512M191.693 72.512C202.535 75.9728 213.044 80.325 222.77 84.9889M222.77 84.9889C233.014 89.9006 242.39 95.1582 250.374 100.085" stroke="black"/>
  <path d="M174.303 191.67C174.288 193.854 173.704 195.542 172.676 196.84L177.483 198.163C178.256 198.375 179.037 197.85 179.109 197.051C179.372 194.154 179.643 189.394 179.326 185.657C178.986 181.637 183.681 182.402 186.835 183.546C187.448 183.768 187.761 184.431 187.588 185.06L182.614 203.133C182.422 203.83 181.701 204.24 181.004 204.048L167.131 200.23C167.025 200.201 166.926 200.159 166.835 200.108C164.376 200.696 161.466 200.878 158.348 200.857C155.129 200.835 152.135 200.6 149.636 199.932C149.518 200.011 149.385 200.071 149.24 200.109L139.262 207.503C138.762 207.837 137.762 208.003 136.762 207.503C135.962 207.103 129.262 199.128 125.262 193.679C124.928 193.272 124.814 192.507 126.262 191.456C128.262 190.003 130.762 187.503 131.762 190.503C132.762 193.503 136.316 198.966 137.262 199.932C138.302 200.995 138.762 200.775 140.707 199.128L144.019 196.572C143.044 195.271 142.504 193.598 142.519 191.456C142.532 189.549 142.982 187.451 143.786 185.373C135.463 185.992 125.302 186.601 118.901 181.001C113.402 176.191 117.638 169.169 123.901 173.502C132.901 179.73 137.805 181.811 146.561 180.232C146.949 179.687 147.36 179.159 147.794 178.653C152.134 179.244 162.494 180.104 169.219 178.818C189.681 164.08 183.191 166.501 190.275 156.003C192.637 152.503 199.543 157.988 197.901 161.501C191.901 172.001 181.45 178.789 171.883 182.816C173.433 185.751 174.321 188.918 174.303 191.67Z" fill="#FBCA04"/>
  <path d="M169.219 178.818C162.494 180.104 152.134 179.244 147.794 178.653C147.36 179.159 146.949 179.687 146.561 180.232M169.219 178.818C170.241 180.05 171.139 181.406 171.883 182.816M169.219 178.818C189.681 164.08 183.191 166.501 190.275 156.003M171.883 182.816C173.433 185.751 174.321 188.918 174.303 191.67C174.288 193.854 173.704 195.542 172.676 196.84L177.483 198.163C178.256 198.375 179.037 197.85 179.109 197.051C179.372 194.154 179.643 189.394 179.326 185.657C178.986 181.637 183.681 182.402 186.835 183.546C187.448 183.768 187.761 184.431 187.588 185.06L182.614 203.133C182.422 203.83 181.701 204.24 181.004 204.048L167.131 200.23C167.025 200.201 166.926 200.159 166.835 200.108C164.376 200.696 161.466 200.878 158.348 200.857C155.129 200.835 152.135 200.6 149.636 199.932C149.518 200.011 149.385 200.071 149.24 200.109L139.262 207.503C138.762 207.837 137.762 208.003 136.762 207.503C135.962 207.103 129.262 199.128 125.262 193.679C124.928 193.272 124.814 192.507 126.262 191.456C128.262 190.003 130.762 187.503 131.762 190.503C132.762 193.503 136.316 198.966 137.262 199.932C138.302 200.995 138.762 200.775 140.707 199.128L144.019 196.572C143.044 195.271 142.504 193.598 142.519 191.456C142.532 189.549 142.982 187.451 143.786 185.373M171.883 182.816C181.45 178.789 191.901 172.001 197.901 161.501C199.543 157.988 192.637 152.503 190.275 156.003M190.275 156.003C189.65 157.503 189.401 160.703 193.401 161.503M143.786 185.373C135.463 185.992 125.302 186.601 118.901 181.001C113.402 176.191 117.638 169.169 123.901 173.502C132.901 179.73 137.805 181.811 146.561 180.232M143.786 185.373C144.471 183.6 145.413 181.842 146.561 180.232" stroke="black"/>
  <path d="M127.401 174.502C127.801 173.302 124.901 169.502 119.901 168.502C117.901 171.669 116.229 177.702 118.229 178.502C120.729 179.502 126.901 176.002 127.401 174.502Z" stroke="black" stroke-width="2" stroke-linejoin="round"/>
  <path d="M168.901 178.003L173.401 184.503L174.901 190.003C172.501 191.203 166.234 183.836 163.401 180.003L168.901 178.003Z" fill="white" stroke="black" stroke-linejoin="round"/>
  <path d="M144.401 179.002L141.401 186.502V190.002C143.401 190.002 146.901 186.502 148.901 180.502L144.401 179.002Z" fill="white" stroke="black" stroke-linejoin="round"/>
  <path d="M173.068 176.664L173.092 176.653L173.115 176.64C178.821 173.398 184.388 168.444 187.955 161.671C191.525 154.891 193.076 146.318 190.789 135.878C188.289 123.742 181.11 114.281 173.006 107.401C164.905 100.523 155.851 96.1992 149.532 94.3413C148.064 93.9096 146.93 95.3938 147.428 96.714C150.784 105.617 150.958 112.3 149.24 117.461C147.523 122.621 143.888 126.341 139.462 129.266C139.216 129.429 138.906 129.433 138.669 129.283C135.756 127.449 133.745 124.891 132.058 120.553C131.598 119.369 130.043 118.921 129.096 119.888C118.353 130.861 117.583 145.015 119.46 151.517C123.887 171.694 138.972 179.915 151.882 181.267L151.902 181.269L151.922 181.27C159.806 181.467 166.753 179.419 173.068 176.664Z" fill="#FBCA04" stroke="black"/>
  <path d="M132.555 151.624C131.949 148.86 132.17 145.981 133.191 143.353C134.211 140.726 135.984 138.47 138.285 136.874C140.586 135.279 143.308 134.417 146.105 134.4C147.956 134.389 149.784 134.748 151.485 135.447C152.67 135.933 154.109 135.618 154.982 134.681C156.236 133.335 157.746 132.244 159.433 131.481C161.98 130.327 164.814 129.971 167.571 130.459C170.327 130.946 172.882 132.254 174.907 134.215C176.932 136.175 178.337 138.698 178.942 141.461C179.423 143.63 179.393 145.88 178.855 148.03C178.319 150.176 177.291 152.161 175.854 153.826L163.636 169.599C163.636 169.599 163.636 169.599 163.636 169.599C162.883 170.571 161.81 171.239 160.61 171.482C159.41 171.725 158.162 171.527 157.09 170.924L139.675 161.138C139.674 161.137 139.673 161.136 139.672 161.136C137.878 160.162 136.314 158.808 135.085 157.166C133.856 155.524 132.993 153.633 132.555 151.624ZM132.555 151.624C132.555 151.624 132.555 151.624 132.555 151.624L133.043 151.517L132.555 151.624C132.555 151.624 132.555 151.624 132.555 151.624Z" fill="#FF8AE0" stroke="black"/>
  <path d="M143.681 144.999L148.817 146.3C148.897 146.32 148.919 146.423 148.855 146.475L144.733 149.803" stroke="black" stroke-width="2" stroke-linecap="round"/>
  <circle cx="164.625" cy="142.93" r="3.68841" transform="rotate(-12.3564 164.625 142.93)" fill="black"/>
  <path d="M146.049 155.809C148.645 159.658 153.509 161.727 158.436 160.647C163.364 159.568 166.917 155.655 167.667 151.074" stroke="black" stroke-width="2" stroke-linecap="round"/>
  <path d="M183.08 129.73C185.787 132.064 187.862 138.196 187.383 142.692" stroke="#FFFEFE" stroke-width="4" stroke-linecap="round"/>
  <path d="M186.751 146.49C186.791 146.671 186.624 147.931 186.034 149.283" stroke="#FFFEFE" stroke-opacity="0.8" stroke-width="4" stroke-linecap="round"/>
  <path d="M125.769 132.038C124.678 133.741 122.492 138.464 122.477 143.737" stroke="#FFFEFE" stroke-opacity="0.8" stroke-width="4" stroke-linecap="round"/>
  <path d="M124.402 172.501C118.14 168.167 113.902 176.502 118.903 180.502L122.902 179.503C128.401 176.504 125.402 173.501 124.402 172.501Z" fill="#FBCA04"/>
  <path d="M118.903 181.001C113.403 176.19 118.14 168.166 124.403 172.5C125.403 173.5 128.401 176.503 122.902 179.502" stroke="black"/>
  <path d="M188.401 158.002C188.001 156.802 192.401 154.002 197.401 153.002C199.401 156.169 200.61 162.202 198.61 163.002C196.11 164.002 188.901 159.502 188.401 158.002Z" stroke="black" stroke-width="2" stroke-linejoin="round"/>
  <path d="M190.149 156.274C196.412 151.941 200.65 160.275 195.649 164.276L191.65 163.276C186.15 160.277 189.149 157.274 190.149 156.274Z" fill="#FBCA04"/>
  <path d="M195.649 164.774C201.149 159.963 196.412 151.94 190.149 156.274C189.149 157.273 186.15 160.276 191.65 163.275" stroke="black"/>
  <defs>
    <radialGradient id="paint0_radial_4_687" cx="0" cy="0" r="1" gradientUnits="userSpaceOnUse" gradientTransform="translate(161.5 179.5) rotate(90) scale(147.5)">
      <stop stop-color="white" stop-opacity="0.8"/>
      <stop offset="1" stop-color="white" stop-opacity="0"/>
    </radialGradient>
  </defs>
</svg>
