<svg width="16" height="15" viewBox="0 0 16 15" fill="none" xmlns="http://www.w3.org/2000/svg">
  <rect x="0.388535" width="14.676" height="14.676" rx="4" fill="#FBCA04"/>
  <path fill-rule="evenodd" clip-rule="evenodd" d="M13.0691 8.83214V5.75537H12.4517V8.1684L11.1235 5.97407C10.897 5.59983 10.3216 5.7604 10.3216 6.19786V9.27463H10.939V6.86159L12.2671 9.05593C12.4937 9.43017 13.0691 9.2696 13.0691 8.83214ZM3.04207 5.75546C2.53059 5.75546 2.11595 6.17009 2.11595 6.68158V9.27471H2.73336V7.79292H3.96819V7.17551H2.73336V6.68158C2.73336 6.51108 2.87158 6.37287 3.04207 6.37287H3.96819V5.75546H3.04207ZM6.12946 8.67295V9.27493H6.74687V8.67295H6.12946ZM6.12946 5.75568V8.2562H6.74687V5.75568H6.12946ZM5.32668 9.27493C4.8152 9.27493 4.40056 8.86029 4.40056 8.34881V5.75568H5.01797V8.34881C5.01797 8.51931 5.15618 8.65752 5.32668 8.65752H5.57364V9.27493H5.32668ZM7.27108 8.00891V6.77409H7.8885V6.98263C8.11483 6.84915 8.38368 6.77409 8.66026 6.77409C9.38112 6.77409 10.0494 7.28401 10.0494 8.00891C10.0494 8.73382 9.38112 9.24374 8.66026 9.24374C8.38368 9.24374 8.11483 9.16867 7.8885 9.0352V9.95376H7.27108V8.00891ZM7.8885 8.00956C7.88893 8.30744 8.18801 8.62633 8.66026 8.62633C9.13286 8.62633 9.43203 8.30697 9.43203 8.00891C9.43203 7.71085 9.13286 7.3915 8.66026 7.3915C8.18801 7.3915 7.88893 7.71039 7.8885 8.00826C7.8885 8.00848 7.88849 8.00869 7.88849 8.00891C7.88849 8.00913 7.8885 8.00935 7.8885 8.00956Z" fill="black"/>
  <path d="M13.7 6.35533L9.4382 7.54755L9.59665 7.71436L9.54333 7.93526L9.66293 8.06932L9.64237 8.25137L9.76196 8.38544L9.7414 8.56749L9.85795 8.66575L9.83434 8.812L14.1381 7.68833L13.9469 7.56037L14.036 7.33642L13.8806 7.20541L13.9339 6.98451L13.7815 6.88929L13.8379 6.70419L13.6795 6.53738L13.7 6.35533Z" fill="#FBCA04" fill-opacity="0.8" stroke="black" stroke-width="0.5" stroke-linejoin="round"/>
</svg>
